<svg width="140" height="140" viewBox="0 0 140 140" fill="none" xmlns="http://www.w3.org/2000/svg">
<g clip-path="url(#clip0_401_23)">
<path d="M36.5635 68.208C37.9469 66.8245 39.599 66.1328 41.5195 66.1328C43.4401 66.1328 45.1084 66.8245 46.5244 68.208C47.9079 69.624 48.5996 71.3005 48.5996 73.2373C48.5996 75.1579 47.9079 76.8099 46.5244 78.1934C45.1247 79.5605 43.4564 80.2441 41.5195 80.2441C39.5827 80.2441 37.9225 79.5605 36.5391 78.1934C35.1719 76.8099 34.4883 75.1579 34.4883 73.2373C34.4883 71.3005 35.18 69.624 36.5635 68.208ZM61.4072 68.208C62.7907 66.8245 64.4427 66.1328 66.3633 66.1328C68.2839 66.1328 69.9521 66.8245 71.3682 68.208C72.7516 69.624 73.4434 71.3005 73.4434 73.2373C73.4434 75.1579 72.7516 76.8099 71.3682 78.1934C69.9684 79.5605 68.3001 80.2441 66.3633 80.2441C64.4264 80.2441 62.7663 79.5605 61.3828 78.1934C60.0156 76.8099 59.332 75.1579 59.332 73.2373C59.332 71.3005 60.0238 69.624 61.4072 68.208ZM86.251 68.208C87.6344 66.8245 89.2865 66.1328 91.207 66.1328C93.1276 66.1328 94.7959 66.8245 96.2119 68.208C97.5954 69.624 98.2871 71.3005 98.2871 73.2373C98.2871 75.1579 97.5954 76.8099 96.2119 78.1934C94.8122 79.5605 93.1439 80.2441 91.207 80.2441C89.2702 80.2441 87.61 79.5605 86.2266 78.1934C84.8594 76.8099 84.1758 75.1579 84.1758 73.2373C84.1758 71.3005 84.8675 69.624 86.251 68.208Z" fill="#272704"/>
<path d="M124.939 14.0749C134.746 23.8819 137.902 38.9087 134.588 55.6626C131.278 72.3971 121.54 90.5529 106.046 106.046C90.5527 121.54 72.3968 131.278 55.6623 134.588C38.9085 137.903 23.8816 134.746 14.0747 124.94C4.26772 115.133 1.11157 100.106 4.42582 83.3519C7.73623 66.6174 17.4744 48.4615 32.9678 32.9681C48.4613 17.4747 66.6172 7.73647 83.3516 4.42605C100.106 1.11181 115.132 4.26795 124.939 14.0749Z" stroke="#272704" stroke-width="5"/>
</g>
<defs>
<clipPath id="clip0_401_23">
<rect width="140" height="140" fill="white"/>
</clipPath>
</defs>
</svg>
